<mxfile host="65bd71144e" scale="1" border="15">
    <diagram id="GzMs6nsaUaTchgCNRViS" name="Page-1">
        <mxGraphModel dx="585" dy="502" grid="1" gridSize="10" guides="1" tooltips="1" connect="1" arrows="1" fold="1" page="1" pageScale="1" pageWidth="827" pageHeight="1169" math="0" shadow="0">
            <root>
                <mxCell id="0"/>
                <mxCell id="1" parent="0"/>
                <mxCell id="4" value="" style="edgeStyle=none;html=1;strokeColor=#FF0000;" parent="1" source="2" target="3" edge="1">
                    <mxGeometry relative="1" as="geometry"/>
                </mxCell>
                <mxCell id="2" value="New project requirement&lt;br&gt;from lecture" style="rounded=1;whiteSpace=wrap;html=1;fillColor=#FFFFC0;fontColor=#000000;strokeColor=#FF0000;labelBorderColor=none;" parent="1" vertex="1">
                    <mxGeometry x="180" y="60" width="120" height="60" as="geometry"/>
                </mxCell>
                <mxCell id="6" value="" style="edgeStyle=none;html=1;strokeColor=#FF0000;" parent="1" source="3" target="5" edge="1">
                    <mxGeometry relative="1" as="geometry"/>
                </mxCell>
                <mxCell id="3" value="split requirements into smaller task" style="rounded=1;whiteSpace=wrap;html=1;fillColor=#FFFFC0;fontColor=#000000;strokeColor=#FF0000;" parent="1" vertex="1">
                    <mxGeometry x="180" y="160" width="120" height="60" as="geometry"/>
                </mxCell>
                <mxCell id="19" style="edgeStyle=none;curved=1;html=1;exitX=0.5;exitY=1;exitDx=0;exitDy=0;entryX=0.5;entryY=0;entryDx=0;entryDy=0;startArrow=none;startFill=0;strokeColor=#FF0000;" parent="1" source="5" target="12" edge="1">
                    <mxGeometry relative="1" as="geometry"/>
                </mxCell>
                <mxCell id="5" value="formulate task into issue&amp;nbsp;" style="rounded=1;whiteSpace=wrap;html=1;fillColor=#FFFFC0;fontColor=#000000;strokeColor=#FF0000;" parent="1" vertex="1">
                    <mxGeometry x="180" y="260" width="120" height="60" as="geometry"/>
                </mxCell>
                <mxCell id="14" style="edgeStyle=none;html=1;entryX=0;entryY=0.5;entryDx=0;entryDy=0;startArrow=none;startFill=0;exitX=0;exitY=0.5;exitDx=0;exitDy=0;strokeColor=#FF0000;rounded=0;" parent="1" source="12" target="5" edge="1">
                    <mxGeometry relative="1" as="geometry">
                        <Array as="points">
                            <mxPoint x="120" y="405"/>
                            <mxPoint x="120" y="290"/>
                        </Array>
                    </mxGeometry>
                </mxCell>
                <mxCell id="15" value="Not" style="edgeLabel;html=1;align=center;verticalAlign=middle;resizable=0;points=[];" parent="14" vertex="1" connectable="0">
                    <mxGeometry x="-0.3297" y="-8" relative="1" as="geometry">
                        <mxPoint x="-8" y="-56" as="offset"/>
                    </mxGeometry>
                </mxCell>
                <mxCell id="16" style="edgeStyle=none;html=1;exitX=1;exitY=0.5;exitDx=0;exitDy=0;startArrow=none;startFill=0;entryX=0;entryY=0.5;entryDx=0;entryDy=0;strokeColor=#FF0000;rounded=0;" parent="1" source="12" target="17" edge="1">
                    <mxGeometry relative="1" as="geometry">
                        <mxPoint x="430" y="240" as="targetPoint"/>
                        <Array as="points">
                            <mxPoint x="360" y="405"/>
                            <mxPoint x="360" y="90"/>
                        </Array>
                    </mxGeometry>
                </mxCell>
                <mxCell id="18" value="Accepted" style="edgeLabel;html=1;align=center;verticalAlign=middle;resizable=0;points=[];" parent="16" vertex="1" connectable="0">
                    <mxGeometry x="-0.0943" y="13" relative="1" as="geometry">
                        <mxPoint x="14" y="-45" as="offset"/>
                    </mxGeometry>
                </mxCell>
                <mxCell id="12" value="Formulation&lt;br&gt;accepted?" style="rhombus;whiteSpace=wrap;html=1;fillColor=#FFFFC0;fontColor=#000000;strokeColor=#FF0000;" parent="1" vertex="1">
                    <mxGeometry x="195" y="360" width="90" height="90" as="geometry"/>
                </mxCell>
                <mxCell id="21" style="edgeStyle=none;curved=1;html=1;exitX=0.5;exitY=1;exitDx=0;exitDy=0;entryX=0.5;entryY=0;entryDx=0;entryDy=0;startArrow=none;startFill=0;strokeColor=#FF0000;" parent="1" source="17" target="20" edge="1">
                    <mxGeometry relative="1" as="geometry"/>
                </mxCell>
                <mxCell id="17" value="Post issue / assign developer" style="rounded=1;whiteSpace=wrap;html=1;fillColor=#FFFFC0;fontColor=#000000;strokeColor=#FF0000;" parent="1" vertex="1">
                    <mxGeometry x="400" y="60" width="120" height="60" as="geometry"/>
                </mxCell>
                <mxCell id="23" value="" style="edgeStyle=none;curved=1;html=1;startArrow=none;startFill=0;strokeColor=#FF0000;" parent="1" source="20" target="22" edge="1">
                    <mxGeometry relative="1" as="geometry"/>
                </mxCell>
                <mxCell id="20" value="Work on issue" style="rounded=1;whiteSpace=wrap;html=1;fillColor=#FFFFC0;fontColor=#000000;strokeColor=#FF0000;" parent="1" vertex="1">
                    <mxGeometry x="400" y="160" width="120" height="60" as="geometry"/>
                </mxCell>
                <mxCell id="25" value="" style="edgeStyle=none;curved=1;html=1;startArrow=none;startFill=0;strokeColor=#FF0000;" parent="1" target="24" edge="1">
                    <mxGeometry relative="1" as="geometry">
                        <mxPoint x="460" y="310" as="sourcePoint"/>
                    </mxGeometry>
                </mxCell>
                <mxCell id="28" value="Yes" style="edgeLabel;html=1;align=center;verticalAlign=middle;resizable=0;points=[];" parent="25" vertex="1" connectable="0">
                    <mxGeometry x="-0.2703" relative="1" as="geometry">
                        <mxPoint y="1" as="offset"/>
                    </mxGeometry>
                </mxCell>
                <mxCell id="61" style="edgeStyle=none;html=1;entryX=1;entryY=0.5;entryDx=0;entryDy=0;strokeColor=#FF0000;fontSize=11;fontColor=#000000;startArrow=none;startFill=0;endArrow=classic;endFill=1;exitX=0.929;exitY=0.5;exitDx=0;exitDy=0;exitPerimeter=0;rounded=0;" parent="1" source="22" target="20" edge="1">
                    <mxGeometry relative="1" as="geometry">
                        <mxPoint x="495" y="280" as="sourcePoint"/>
                        <Array as="points">
                            <mxPoint x="570" y="280"/>
                            <mxPoint x="570" y="190"/>
                        </Array>
                    </mxGeometry>
                </mxCell>
                <mxCell id="22" value="Done" style="rhombus;whiteSpace=wrap;html=1;fillColor=#FFFFC0;strokeColor=#FF0000;fontColor=#000000;rounded=1;" parent="1" vertex="1">
                    <mxGeometry x="425" y="250" width="70" height="60" as="geometry"/>
                </mxCell>
                <mxCell id="30" style="edgeStyle=none;html=1;exitX=1;exitY=0.5;exitDx=0;exitDy=0;startArrow=none;startFill=0;entryX=0;entryY=0.5;entryDx=0;entryDy=0;strokeColor=#FF0000;rounded=0;" parent="1" source="24" target="33" edge="1">
                    <mxGeometry relative="1" as="geometry">
                        <mxPoint x="630" y="50" as="targetPoint"/>
                        <Array as="points">
                            <mxPoint x="610" y="395"/>
                            <mxPoint x="610" y="153"/>
                        </Array>
                    </mxGeometry>
                </mxCell>
                <mxCell id="24" value="Create/update pull request" style="whiteSpace=wrap;html=1;fillColor=#FFFFC0;strokeColor=#FF0000;fontColor=#000000;rounded=1;" parent="1" vertex="1">
                    <mxGeometry x="400" y="365" width="120" height="60" as="geometry"/>
                </mxCell>
                <mxCell id="54" style="edgeStyle=none;curved=1;html=1;entryX=0.5;entryY=0;entryDx=0;entryDy=0;fontSize=11;fontColor=#000000;startArrow=none;startFill=0;strokeColor=#FF0000;" parent="1" source="31" target="53" edge="1">
                    <mxGeometry relative="1" as="geometry"/>
                </mxCell>
                <mxCell id="31" value="Deploy and merge to main" style="whiteSpace=wrap;html=1;fillColor=#FFFFC0;strokeColor=#FF0000;fontColor=#000000;rounded=1;" parent="1" vertex="1">
                    <mxGeometry x="640" y="280" width="120" height="60" as="geometry"/>
                </mxCell>
                <mxCell id="36" style="edgeStyle=none;curved=1;html=1;entryX=0.5;entryY=0;entryDx=0;entryDy=0;fontSize=11;startArrow=none;startFill=0;strokeColor=#FF0000;" parent="1" source="33" target="31" edge="1">
                    <mxGeometry relative="1" as="geometry">
                        <mxPoint x="699.69" y="144.99999999999994" as="sourcePoint"/>
                        <mxPoint x="699.69" y="250" as="targetPoint"/>
                    </mxGeometry>
                </mxCell>
                <mxCell id="55" style="edgeStyle=none;curved=1;html=1;exitX=0.5;exitY=1;exitDx=0;exitDy=0;entryX=0.5;entryY=0;entryDx=0;entryDy=0;fontSize=11;fontColor=#000000;startArrow=none;startFill=0;endArrow=classic;endFill=1;strokeColor=#FF0000;" parent="1" source="45" target="2" edge="1">
                    <mxGeometry relative="1" as="geometry"/>
                </mxCell>
                <mxCell id="45" value="" style="ellipse;html=1;shape=startState;fillColor=#000000;strokeColor=#ff0000;fontColor=#3B3B3B;" parent="1" vertex="1">
                    <mxGeometry x="225" width="30" height="30" as="geometry"/>
                </mxCell>
                <mxCell id="53" value="" style="ellipse;html=1;shape=endState;fillColor=#000000;strokeColor=#ff0000;" parent="1" vertex="1">
                    <mxGeometry x="685" y="380" width="30" height="30" as="geometry"/>
                </mxCell>
                <mxCell id="57" value="" style="edgeStyle=none;curved=1;html=1;entryX=0.5;entryY=0;entryDx=0;entryDy=0;fontSize=11;startArrow=none;startFill=0;strokeColor=#FF0000;endArrow=none;" parent="1" target="33" edge="1">
                    <mxGeometry relative="1" as="geometry">
                        <mxPoint x="699.6899999999998" y="145" as="sourcePoint"/>
                        <mxPoint x="700" y="280" as="targetPoint"/>
                    </mxGeometry>
                </mxCell>
                <mxCell id="58" value="yes" style="edgeLabel;html=1;align=center;verticalAlign=middle;resizable=0;points=[];fontSize=11;" parent="57" vertex="1" connectable="0">
                    <mxGeometry x="-0.4862" y="2" relative="1" as="geometry">
                        <mxPoint x="-2" y="48" as="offset"/>
                    </mxGeometry>
                </mxCell>
                <mxCell id="59" style="edgeStyle=none;html=1;exitX=0.5;exitY=0;exitDx=0;exitDy=0;entryX=1;entryY=0.5;entryDx=0;entryDy=0;strokeColor=#FF0000;fontSize=11;fontColor=#000000;startArrow=none;startFill=0;endArrow=classic;endFill=1;rounded=0;" parent="1" source="33" target="20" edge="1">
                    <mxGeometry relative="1" as="geometry">
                        <Array as="points">
                            <mxPoint x="580" y="100"/>
                            <mxPoint x="580" y="153"/>
                            <mxPoint x="580" y="190"/>
                        </Array>
                    </mxGeometry>
                </mxCell>
                <mxCell id="33" value="&lt;font style=&quot;font-size: 11px;&quot;&gt;Approved by 2&amp;nbsp; members&lt;/font&gt;" style="rhombus;whiteSpace=wrap;html=1;fillColor=#FFFFC0;fontColor=#000000;strokeColor=#FF0000;" parent="1" vertex="1">
                    <mxGeometry x="650" y="100" width="100" height="105" as="geometry"/>
                </mxCell>
            </root>
        </mxGraphModel>
    </diagram>
</mxfile>